# MagicaVoxel @ Ephtracy

# group
o 

# material
mtllib Lobby-0.mtl
usemtl palette

# normals
vn -1 0 0
vn 1 0 0
vn 0 0 1
vn 0 0 -1
vn 0 -1 0
vn 0 1 0

# texcoords
vt 0.00195313 0.5
vt 0.0175781 0.5
vt 0.0214844 0.5

# verts
v 7.8 0.1 8
v 7.8 0.1 4.3
v 7.8 0.1 2.2
v 7.8 0.1 -7.8
v 7.8 3.9 4.3
v 7.8 3.9 2.2
v 7.8 6 8
v 7.8 6 -7.8
v 7.9 0.1 4.3
v 7.9 0.1 3.3
v 7.9 0.1 3.2
v 7.9 0.1 2.2
v 7.9 3.9 4.3
v 7.9 3.9 3.3
v 7.9 3.9 3.2
v 7.9 3.9 2.2
v 8.1 0.1 8
v 8.1 0.1 -7.8
v 8.1 6 8
v 8.1 6 -7.8
v 7.8 0.1 8
v 7.8 6 8
v 8.1 0.1 8
v 8.1 6 8
v 7.8 0.1 2.2
v 7.8 3.9 2.2
v 7.9 0.1 2.2
v 7.9 3.9 2.2
v 7.8 0.1 4.3
v 7.8 3.9 4.3
v 7.9 0.1 4.3
v 7.9 3.9 4.3
v 7.8 0.1 -7.8
v 7.8 6 -7.8
v 8.1 0.1 -7.8
v 8.1 6 -7.8
v 7.8 0.1 8
v 8.1 0.1 8
v 7.8 0.1 4.3
v 7.9 0.1 4.3
v 8 0.1 4.3
v 7.9 0.1 3.3
v 8 0.1 3.3
v 7.9 0.1 3.2
v 8 0.1 3.2
v 7.8 0.1 2.2
v 7.9 0.1 2.2
v 8 0.1 2.2
v 7.8 0.1 -7.8
v 8.1 0.1 -7.8
v 7.8 3.9 4.3
v 7.9 3.9 4.3
v 7.9 3.9 3.3
v 7.9 3.9 3.2
v 7.8 3.9 2.2
v 7.9 3.9 2.2
v 7.8 6 8
v 8.1 6 8
v 7.8 6 -7.8
v 8.1 6 -7.8

# faces
f 5/1/1 2/1/1 1/1/1
f 6/1/1 4/1/1 3/1/1
f 7/1/1 5/1/1 1/1/1
f 7/1/1 6/1/1 5/1/1
f 8/1/1 4/1/1 6/1/1
f 8/1/1 6/1/1 7/1/1
f 13/2/1 10/2/1 9/2/1
f 14/3/1 11/3/1 10/3/1
f 14/2/1 10/2/1 13/2/1
f 15/2/1 12/2/1 11/2/1
f 15/3/1 11/3/1 14/3/1
f 16/2/1 12/2/1 15/2/1
f 17/1/2 18/1/2 19/1/2
f 19/1/2 18/1/2 20/1/2
f 23/1/3 22/1/3 21/1/3
f 24/1/3 22/1/3 23/1/3
f 27/1/3 26/1/3 25/1/3
f 28/1/3 26/1/3 27/1/3
f 29/1/4 30/1/4 31/1/4
f 31/1/4 30/1/4 32/1/4
f 33/1/4 34/1/4 35/1/4
f 35/1/4 34/1/4 36/1/4
f 39/1/5 38/1/5 37/1/5
f 40/1/5 38/1/5 39/1/5
f 41/1/5 38/1/5 40/1/5
f 42/2/5 41/2/5 40/2/5
f 43/1/5 38/1/5 41/1/5
f 43/2/5 41/2/5 42/2/5
f 44/3/5 43/3/5 42/3/5
f 45/1/5 38/1/5 43/1/5
f 45/3/5 43/3/5 44/3/5
f 47/2/5 45/2/5 44/2/5
f 48/1/5 38/1/5 45/1/5
f 48/2/5 45/2/5 47/2/5
f 49/1/5 47/1/5 46/1/5
f 49/1/5 48/1/5 47/1/5
f 50/1/5 38/1/5 48/1/5
f 50/1/5 48/1/5 49/1/5
f 53/1/5 52/1/5 51/1/5
f 54/1/5 53/1/5 51/1/5
f 55/1/5 54/1/5 51/1/5
f 56/1/5 54/1/5 55/1/5
f 57/1/6 58/1/6 59/1/6
f 59/1/6 58/1/6 60/1/6
