# MagicaVoxel @ Ephtracy

# group
o 

# material
mtllib Room_01-1.mtl
usemtl palette

# normals
vn 0 0 1
vn 0 0 -1
vn 1 0 0
vn -1 0 0
vn 0 -1 0
vn 0 1 0

# texcoords
vt 0.00585938 0.5
vt 0.0136719 0.5

# verts
v 0 0.3 3.5
v -0.1 0.3 3.5
v 0 1 3.5
v -0.1 1 3.5
v 0 2.2 3.5
v -0.1 2.2 3.5
v 0 3 3.5
v -0.1 3 3.5
v 0 0.1 3.4
v -0.1 0.1 3.4
v 0 0.3 3.4
v -0.1 0.3 3.4
v 0 1 3.4
v -0.1 1 3.4
v 0 1.2 3.4
v -0.1 1.2 3.4
v 0 2 3.4
v -0.1 2 3.4
v 0 2.2 3.4
v -0.1 2.2 3.4
v 0 3 3.4
v -0.1 3 3.4
v 0 3.2 3.4
v -0.1 3.2 3.4
v 0 3.8 3.4
v -0.1 3.8 3.4
v 0 4 3.4
v -0.1 4 3.4
v 0 1.2 3.3
v -0.1 1.2 3.3
v 0 2 3.3
v -0.1 2 3.3
v 0 3.2 3.3
v -0.1 3.2 3.3
v 0 3.8 3.3
v -0.1 3.8 3.3
v 0 0.1 2.6
v -0.1 0.1 2.6
v 0 0.2 2.6
v -0.1 0.2 2.6
v 0 3.9 2.6
v -0.1 3.9 2.6
v 0 4 2.6
v -0.1 4 2.6
v 0 0.2 2.5
v -0.1 0.2 2.5
v 0 0.3 2.5
v -0.1 0.3 2.5
v 0 3.8 2.5
v -0.1 3.8 2.5
v 0 3.9 2.5
v -0.1 3.9 2.5
v 0 0.3 2.4
v -0.1 0.3 2.4
v 0 3.8 2.4
v -0.1 3.8 2.4
v 0 0.3 3.5
v 0 1 3.5
v 0 2.2 3.5
v 0 3 3.5
v 0 0.1 3.4
v 0 0.3 3.4
v 0 1 3.4
v 0 1.2 3.4
v 0 2 3.4
v 0 2.2 3.4
v 0 3 3.4
v 0 3.2 3.4
v 0 3.8 3.4
v 0 4 3.4
v 0 0.2 3.3
v 0 0.3 3.3
v 0 1 3.3
v 0 1.2 3.3
v 0 2 3.3
v 0 2.2 3.3
v 0 3 3.3
v 0 3.2 3.3
v 0 3.8 3.3
v 0 3.9 3.3
v 0 1.2 3.2
v 0 2 3.2
v 0 3.2 3.2
v 0 3.8 3.2
v 0 0.2 2.7
v 0 0.3 2.7
v 0 3.8 2.7
v 0 3.9 2.7
v 0 0.1 2.6
v 0 0.2 2.6
v 0 0.3 2.6
v 0 0.4 2.6
v 0 3.7 2.6
v 0 3.8 2.6
v 0 3.9 2.6
v 0 4 2.6
v 0 0.2 2.5
v 0 0.3 2.5
v 0 0.4 2.5
v 0 3.7 2.5
v 0 3.8 2.5
v 0 3.9 2.5
v 0 0.3 2.4
v 0 3.8 2.4
v -0.1 0.3 3.5
v -0.1 1 3.5
v -0.1 2.2 3.5
v -0.1 3 3.5
v -0.1 0.1 3.4
v -0.1 0.3 3.4
v -0.1 1 3.4
v -0.1 1.2 3.4
v -0.1 2 3.4
v -0.1 2.2 3.4
v -0.1 3 3.4
v -0.1 3.2 3.4
v -0.1 3.8 3.4
v -0.1 4 3.4
v -0.1 0.2 3.3
v -0.1 0.3 3.3
v -0.1 1 3.3
v -0.1 1.2 3.3
v -0.1 2 3.3
v -0.1 2.2 3.3
v -0.1 3 3.3
v -0.1 3.2 3.3
v -0.1 3.8 3.3
v -0.1 3.9 3.3
v -0.1 1.2 3.2
v -0.1 2 3.2
v -0.1 3.2 3.2
v -0.1 3.8 3.2
v -0.1 0.2 2.7
v -0.1 0.3 2.7
v -0.1 3.8 2.7
v -0.1 3.9 2.7
v -0.1 0.1 2.6
v -0.1 0.2 2.6
v -0.1 0.3 2.6
v -0.1 0.4 2.6
v -0.1 3.7 2.6
v -0.1 3.8 2.6
v -0.1 3.9 2.6
v -0.1 4 2.6
v -0.1 0.2 2.5
v -0.1 0.3 2.5
v -0.1 0.4 2.5
v -0.1 3.7 2.5
v -0.1 3.8 2.5
v -0.1 3.9 2.5
v -0.1 0.3 2.4
v -0.1 3.8 2.4
v 0 0.1 3.4
v 0 0.1 2.6
v -0.1 0.1 3.4
v -0.1 0.1 2.6
v 0 0.2 2.6
v 0 0.2 2.5
v -0.1 0.2 2.6
v -0.1 0.2 2.5
v 0 0.3 3.5
v 0 0.3 3.4
v 0 0.3 2.5
v 0 0.3 2.4
v -0.1 0.3 3.5
v -0.1 0.3 3.4
v -0.1 0.3 2.5
v -0.1 0.3 2.4
v 0 2 3.4
v 0 2 3.3
v -0.1 2 3.4
v -0.1 2 3.3
v 0 2.2 3.5
v 0 2.2 3.4
v -0.1 2.2 3.5
v -0.1 2.2 3.4
v 0 3.8 3.4
v 0 3.8 3.3
v -0.1 3.8 3.4
v -0.1 3.8 3.3
v 0 1 3.5
v 0 1 3.4
v -0.1 1 3.5
v -0.1 1 3.4
v 0 1.2 3.4
v 0 1.2 3.3
v -0.1 1.2 3.4
v -0.1 1.2 3.3
v 0 3 3.5
v 0 3 3.4
v -0.1 3 3.5
v -0.1 3 3.4
v 0 3.2 3.4
v 0 3.2 3.3
v -0.1 3.2 3.4
v -0.1 3.2 3.3
v 0 3.8 2.5
v 0 3.8 2.4
v -0.1 3.8 2.5
v -0.1 3.8 2.4
v 0 3.9 2.6
v 0 3.9 2.5
v -0.1 3.9 2.6
v -0.1 3.9 2.5
v 0 4 3.4
v 0 4 2.6
v -0.1 4 3.4
v -0.1 4 2.6

# faces
f 3/1/1 2/1/1 1/1/1
f 4/1/1 2/1/1 3/1/1
f 7/1/1 6/1/1 5/1/1
f 8/1/1 6/1/1 7/1/1
f 11/1/1 10/1/1 9/1/1
f 12/1/1 10/1/1 11/1/1
f 15/1/1 14/1/1 13/1/1
f 16/1/1 14/1/1 15/1/1
f 19/1/1 18/1/1 17/1/1
f 20/1/1 18/1/1 19/1/1
f 23/1/1 22/1/1 21/1/1
f 24/1/1 22/1/1 23/1/1
f 27/1/1 26/1/1 25/1/1
f 28/1/1 26/1/1 27/1/1
f 31/1/1 30/1/1 29/1/1
f 32/1/1 30/1/1 31/1/1
f 35/1/1 34/1/1 33/1/1
f 36/1/1 34/1/1 35/1/1
f 37/1/2 38/1/2 39/1/2
f 39/1/2 38/1/2 40/1/2
f 41/1/2 42/1/2 43/1/2
f 43/1/2 42/1/2 44/1/2
f 45/1/2 46/1/2 47/1/2
f 47/1/2 46/1/2 48/1/2
f 49/1/2 50/1/2 51/1/2
f 51/1/2 50/1/2 52/1/2
f 53/1/2 54/1/2 55/1/2
f 55/1/2 54/1/2 56/1/2
f 62/1/3 58/1/3 57/1/3
f 63/1/3 58/1/3 62/1/3
f 66/1/3 60/1/3 59/1/3
f 67/1/3 60/1/3 66/1/3
f 71/1/3 62/1/3 61/1/3
f 72/2/3 63/2/3 62/2/3
f 72/1/3 62/1/3 71/1/3
f 73/1/3 64/1/3 63/1/3
f 73/2/3 63/2/3 72/2/3
f 74/1/3 64/1/3 73/1/3
f 75/1/3 66/1/3 65/1/3
f 76/2/3 67/2/3 66/2/3
f 76/1/3 66/1/3 75/1/3
f 77/1/3 68/1/3 67/1/3
f 77/2/3 67/2/3 76/2/3
f 78/1/3 68/1/3 77/1/3
f 79/1/3 70/1/3 69/1/3
f 80/1/3 70/1/3 79/1/3
f 81/2/3 72/2/3 71/2/3
f 81/2/3 74/2/3 73/2/3
f 81/1/3 75/1/3 74/1/3
f 81/2/3 73/2/3 72/2/3
f 82/2/3 78/2/3 77/2/3
f 82/1/3 75/1/3 81/1/3
f 82/2/3 76/2/3 75/2/3
f 82/2/3 77/2/3 76/2/3
f 83/1/3 79/1/3 78/1/3
f 83/2/3 78/2/3 82/2/3
f 84/2/3 80/2/3 79/2/3
f 84/1/3 79/1/3 83/1/3
f 85/2/3 81/2/3 71/2/3
f 85/1/3 71/1/3 61/1/3
f 85/2/3 84/2/3 83/2/3
f 85/2/3 83/2/3 82/2/3
f 85/2/3 82/2/3 81/2/3
f 86/2/3 84/2/3 85/2/3
f 87/2/3 80/2/3 84/2/3
f 87/2/3 84/2/3 86/2/3
f 88/1/3 70/1/3 80/1/3
f 88/2/3 80/2/3 87/2/3
f 89/1/3 86/1/3 85/1/3
f 89/1/3 85/1/3 61/1/3
f 90/1/3 86/1/3 89/1/3
f 91/2/3 87/2/3 86/2/3
f 91/1/3 86/1/3 90/1/3
f 92/2/3 87/2/3 91/2/3
f 93/2/3 87/2/3 92/2/3
f 94/1/3 88/1/3 87/1/3
f 94/2/3 87/2/3 93/2/3
f 95/1/3 70/1/3 88/1/3
f 95/1/3 88/1/3 94/1/3
f 96/1/3 70/1/3 95/1/3
f 97/1/3 91/1/3 90/1/3
f 97/1/3 92/1/3 91/1/3
f 98/1/3 92/1/3 97/1/3
f 99/2/3 93/2/3 92/2/3
f 99/1/3 92/1/3 98/1/3
f 100/1/3 94/1/3 93/1/3
f 100/2/3 93/2/3 99/2/3
f 100/1/3 95/1/3 94/1/3
f 101/1/3 95/1/3 100/1/3
f 102/1/3 95/1/3 101/1/3
f 103/1/3 99/1/3 98/1/3
f 103/1/3 101/1/3 100/1/3
f 103/1/3 100/1/3 99/1/3
f 104/1/3 101/1/3 103/1/3
f 105/1/4 106/1/4 110/1/4
f 110/1/4 106/1/4 111/1/4
f 107/1/4 108/1/4 114/1/4
f 114/1/4 108/1/4 115/1/4
f 109/1/4 110/1/4 119/1/4
f 110/2/4 111/2/4 120/2/4
f 119/1/4 110/1/4 120/1/4
f 111/1/4 112/1/4 121/1/4
f 120/2/4 111/2/4 121/2/4
f 121/1/4 112/1/4 122/1/4
f 113/1/4 114/1/4 123/1/4
f 114/2/4 115/2/4 124/2/4
f 123/1/4 114/1/4 124/1/4
f 115/1/4 116/1/4 125/1/4
f 124/2/4 115/2/4 125/2/4
f 125/1/4 116/1/4 126/1/4
f 117/1/4 118/1/4 127/1/4
f 127/1/4 118/1/4 128/1/4
f 119/2/4 120/2/4 129/2/4
f 121/2/4 122/2/4 129/2/4
f 122/1/4 123/1/4 129/1/4
f 120/2/4 121/2/4 129/2/4
f 125/2/4 126/2/4 130/2/4
f 129/1/4 123/1/4 130/1/4
f 123/2/4 124/2/4 130/2/4
f 124/2/4 125/2/4 130/2/4
f 126/1/4 127/1/4 131/1/4
f 130/2/4 126/2/4 131/2/4
f 127/2/4 128/2/4 132/2/4
f 131/1/4 127/1/4 132/1/4
f 119/2/4 129/2/4 133/2/4
f 109/1/4 119/1/4 133/1/4
f 131/2/4 132/2/4 133/2/4
f 130/2/4 131/2/4 133/2/4
f 129/2/4 130/2/4 133/2/4
f 133/2/4 132/2/4 134/2/4
f 132/2/4 128/2/4 135/2/4
f 134/2/4 132/2/4 135/2/4
f 128/1/4 118/1/4 136/1/4
f 135/2/4 128/2/4 136/2/4
f 133/1/4 134/1/4 137/1/4
f 109/1/4 133/1/4 137/1/4
f 137/1/4 134/1/4 138/1/4
f 134/2/4 135/2/4 139/2/4
f 138/1/4 134/1/4 139/1/4
f 139/2/4 135/2/4 140/2/4
f 140/2/4 135/2/4 141/2/4
f 135/1/4 136/1/4 142/1/4
f 141/2/4 135/2/4 142/2/4
f 136/1/4 118/1/4 143/1/4
f 142/1/4 136/1/4 143/1/4
f 143/1/4 118/1/4 144/1/4
f 138/1/4 139/1/4 145/1/4
f 139/1/4 140/1/4 145/1/4
f 145/1/4 140/1/4 146/1/4
f 140/2/4 141/2/4 147/2/4
f 146/1/4 140/1/4 147/1/4
f 141/1/4 142/1/4 148/1/4
f 147/2/4 141/2/4 148/2/4
f 142/1/4 143/1/4 148/1/4
f 148/1/4 143/1/4 149/1/4
f 149/1/4 143/1/4 150/1/4
f 146/1/4 147/1/4 151/1/4
f 148/1/4 149/1/4 151/1/4
f 147/1/4 148/1/4 151/1/4
f 151/1/4 149/1/4 152/1/4
f 155/1/5 154/1/5 153/1/5
f 156/1/5 154/1/5 155/1/5
f 159/1/5 158/1/5 157/1/5
f 160/1/5 158/1/5 159/1/5
f 165/1/5 162/1/5 161/1/5
f 166/1/5 162/1/5 165/1/5
f 167/1/5 164/1/5 163/1/5
f 168/1/5 164/1/5 167/1/5
f 171/1/5 170/1/5 169/1/5
f 172/1/5 170/1/5 171/1/5
f 175/1/5 174/1/5 173/1/5
f 176/1/5 174/1/5 175/1/5
f 179/1/5 178/1/5 177/1/5
f 180/1/5 178/1/5 179/1/5
f 181/1/6 182/1/6 183/1/6
f 183/1/6 182/1/6 184/1/6
f 185/1/6 186/1/6 187/1/6
f 187/1/6 186/1/6 188/1/6
f 189/1/6 190/1/6 191/1/6
f 191/1/6 190/1/6 192/1/6
f 193/1/6 194/1/6 195/1/6
f 195/1/6 194/1/6 196/1/6
f 197/1/6 198/1/6 199/1/6
f 199/1/6 198/1/6 200/1/6
f 201/1/6 202/1/6 203/1/6
f 203/1/6 202/1/6 204/1/6
f 205/1/6 206/1/6 207/1/6
f 207/1/6 206/1/6 208/1/6
